<svg xmlns="http://www.w3.org/2000/svg" viewBox="0 0 56.2 68.7"><defs><style>.cls-1,.cls-2,.cls-4{fill:none;stroke:#f0433a;stroke-miterlimit:10;}.cls-1{stroke-width:6.6px;}.cls-2{stroke-width:6.7px;}.cls-3{font-size:60px;fill:#f0433a;font-family:SourceSansPro-Bold, Source Sans Pro;font-weight:700;letter-spacing:-0.01em;}</style></defs><title>Recurso 9</title><g id="Capa_2" data-name="Capa 2"><g id="Logo_Color_Transparent" data-name="Logo Color Transparent"><path class="cls-1" d="M37.29,25.54c9.6,6.19,13.5,16.6,4.94,25.44-7.28,7.51-19.54,5.2-25.94.48s-7.44-17.16-5.65-25c2.42-10.6,13.83-15.56,21.42-13.65"/><path class="cls-2" d="M18.08,43.65c-8.5-6.14-10.71-16.47-3.28-24.86,7.11-8,20.86-5.79,26.11.06,5.45,6.08,9,21,5.06,28.06"/><circle class="cls-2" cx="28.1" cy="35.79" r="24.75"/><text class="cls-3" transform="translate(14.81 49.8)">s</text><path class="cls-4" d="M16.44,48.28c-.81-1-.27-2.81,1.44-1.21"/><path class="cls-4" d="M39.56,21.7c1.33,1.5.35,2.58-1.18,1.25"/></g></g></svg>