<?xml version="1.0" standalone="no"?>
<!DOCTYPE svg PUBLIC "-//W3C//DTD SVG 20010904//EN"
 "http://www.w3.org/TR/2001/REC-SVG-20010904/DTD/svg10.dtd">
<svg version="1.0" xmlns="http://www.w3.org/2000/svg"
 width="281.000000pt" height="281.000000pt" viewBox="0 0 281.000000 281.000000"
 preserveAspectRatio="xMidYMid meet">
<metadata>
Created by potrace 1.11, written by Peter Selinger 2001-2013
</metadata>
<g transform="translate(0.000000,281.000000) scale(0.100000,-0.100000)"
fill="#000000" stroke="none">
<path d="M1255 2802 c-50 -5 -238 -43 -265 -54 -14 -5 -33 -11 -42 -13 -10 -2
-59 -22 -110 -45 -410 -181 -698 -527 -804 -965 -24 -96 -28 -134 -30 -295 -3
-206 7 -283 57 -444 158 -510 601 -892 1129 -972 68 -11 358 -11 422 -1 213
34 436 126 617 254 97 69 257 235 330 341 102 150 195 368 217 512 3 19 7 37
9 40 2 3 7 37 11 75 36 336 -41 668 -219 938 -220 334 -562 553 -972 623 -43
7 -300 12 -350 6z m255 -457 c193 -34 327 -104 425 -223 76 -91 73 -107 -10
-51 -73 50 -192 107 -269 130 -55 17 -98 22 -191 23 -148 0 -211 -9 -299 -46
-196 -82 -296 -231 -291 -429 2 -99 40 -183 116 -260 66 -68 151 -116 327
-186 152 -60 190 -81 228 -126 21 -25 25 -38 21 -70 -10 -74 -67 -108 -182
-109 -88 0 -168 21 -253 68 -276 150 -445 400 -444 659 0 133 38 249 117 360
155 217 410 311 705 260z m46 -461 c145 -43 290 -154 430 -329 196 -243 228
-477 95 -679 -173 -263 -463 -362 -820 -280 -153 36 -321 120 -399 201 -49 52
-49 67 0 30 89 -67 286 -141 408 -153 287 -30 522 53 637 224 49 72 63 117 72
219 11 129 -25 228 -117 319 -61 60 -167 118 -322 174 -222 81 -279 135 -239
224 26 57 151 81 255 50z"/>
</g>
</svg>
